<?xml version="1.0" encoding="utf-8"?>
<!-- Generator: Adobe Illustrator 22.0.0, SVG Export Plug-In . SVG Version: 6.00 Build 0)  -->
<svg version="1.1" id="Layer_1" xmlns="http://www.w3.org/2000/svg" xmlns:xlink="http://www.w3.org/1999/xlink" x="0px" y="0px"
	 viewBox="0 0 499.9 192" style="enable-background:new 0 0 499.9 192;" xml:space="preserve">
<style type="text/css">
	.st0{fill:#00A79D;}
	.st1{fill:#FFFFFF;}
	.st2{fill:#EB1B59;}
	.st3{fill:#616262;}
	.st4{fill:#606161;}
	.st5{fill:#010101;}
</style>
<g>
	<g>
		<path class="st2" d="M28.3,181.5c-10.9,0-19.5-8.5-19.5-19.2c0-10.9,8.5-19.2,19.6-19.2c10.6,0,19.1,8.6,19.1,19.2
			C47.5,173.1,39.1,181.5,28.3,181.5z M28.3,149.7c-7.1,0-12.6,5.4-12.6,12.6c0,7,5.5,12.6,12.6,12.6s12.3-5.4,12.3-12.5
			C40.5,155.2,35.2,149.7,28.3,149.7z"/>
		<path class="st2" d="M61.2,159.1v21.8h-6.7v-21.8h-3.3V153h3.3v-9.3h6.7v9.3h4v6.1H61.2z"/>
		<path class="st2" d="M91.3,180.9v-3.6c-2.7,3-5.3,4.3-9.2,4.3c-8.1,0-14-6.1-14-14.5c0-8.5,5.9-14.7,14.2-14.7
			c4,0,6.8,1.3,9.1,4.4V153h6.1v27.8H91.3z M83,158.5c-4.8,0-8.1,3.6-8.1,8.7c0,4.9,3.4,8.2,8.2,8.2c5.1,0,8.1-3.6,8.1-8.2
			C91.1,162.1,87.7,158.5,83,158.5z"/>
		<path class="st2" d="M117.3,192c-6.8,0-12.1-3.3-14.3-8.8h7.6c2,2.2,3.9,3,7,3c5,0,7.5-2.9,7.8-8.9c-2.6,3.1-5.2,4.3-9.1,4.3
			c-7.9,0-13.7-6.2-13.7-14.8c0-8.2,5.8-14.4,13.7-14.4c4,0,7,1.4,9.1,4.2V153h6.4v22.6C131.7,187.5,125.9,192,117.3,192z
			 M117,158.5c-4.7,0-7.7,3.4-7.7,8.5c0,5.1,3.1,8.3,7.8,8.3s7.9-3.3,7.9-8.3C125,162,121.8,158.5,117,158.5z"/>
		<path class="st2" d="M156.1,180.9v-14.2c0-5.8-1.5-8.1-5.4-8.1c-3.8,0-5.9,2.1-5.9,8.2v14.1h-6.7v-37.1h6.7v11.2
			c2-1.8,4.2-2.6,7.1-2.6c6.7,0,10.9,3.7,10.9,12.8v15.7H156.1z"/>
		<path class="st2" d="M191.6,180.9v-3.6c-2.7,3-5.3,4.3-9.2,4.3c-8.1,0-14-6.1-14-14.5c0-8.5,5.9-14.7,14.2-14.7
			c4,0,6.8,1.3,9.1,4.4V153h6.1v27.8H191.6z M183.2,158.5c-4.8,0-8.1,3.6-8.1,8.7c0,4.9,3.4,8.2,8.2,8.2c5.1,0,8.1-3.6,8.1-8.2
			C191.4,162.1,188,158.5,183.2,158.5z"/>
		<path class="st2" d="M220.2,180.9l-9.5-13v13H204v-37.1h6.7v22.4l8.9-13.1h8l-9.9,13.6l11.6,14.2H220.2z"/>
		<path class="st2" d="M235.3,180.9v-6.4h6.7v6.4H235.3z"/>
		<path class="st2" d="M263.4,181.5c-8.2,0-14.9-6.5-14.9-14.6c0-8.2,6.4-14.6,14.7-14.6c6.3,0,11.9,3.6,14,9.9h-7.5
			c-1.4-2.6-3.5-3.8-6.5-3.8c-4.6,0-7.9,3.5-7.9,8.4c0,4.9,3.5,8.5,8.1,8.5c2.8,0,4.7-1.1,6.3-3.7h7.5
			C274.9,177.9,269.9,181.5,263.4,181.5z"/>
		<path class="st2" d="M296.7,181.5c-8.1,0-14.8-6.5-14.8-14.6c0-8,6.6-14.6,14.7-14.6c8.4,0,14.9,6.5,14.9,14.8
			C311.5,175,304.8,181.5,296.7,181.5z M296.7,158.5c-4.4,0-8,3.8-8,8.3c0,4.8,3.6,8.5,8.1,8.5c4.4,0,8-3.8,8-8.4
			C304.8,162.3,301.2,158.5,296.7,158.5z"/>
		<path class="st2" d="M351.6,180.9v-15.3c0-5.6-2.1-7.1-5.2-7.1c-3.7,0-5.6,2-5.6,8.6v13.7h-6.7v-15.3c0-5.5-1.9-7.1-5.4-7.1
			c-3.9,0-5.4,2.1-5.4,8.6v13.7h-6.7V153h6.1v2.6c2-2.4,4-3.3,7.2-3.3c3.8,0,6.3,1.3,8.2,4.3c2.3-3,5-4.3,8.9-4.3
			c7.3,0,11.3,4.1,11.3,12.4v16.1H351.6z"/>
	</g>
	<g>
		<path class="st2" d="M435.8,11.6C404,13,378.4,39.1,377.5,70.9c-0.4,12.9,3.3,24.9,9.7,34.9l50.6,74.4c0.4,0.6,1.4,0.6,1.8,0
			l50.6-74.4c6.4-9.4,9.7-20.9,9.7-33.1C499.9,37.9,470.9,9.9,435.8,11.6z M438.7,114.3c-23.1,0-41.8-18.7-41.8-41.8
			c0-23.1,18.7-41.8,41.8-41.8c23.1,0,41.8,18.7,41.8,41.8C480.5,95.6,461.8,114.3,438.7,114.3z"/>
		<path class="st2" d="M448,40.6l-19,4.5c-0.5,0.1-0.8,0.6-0.8,1.1v53.2c0,0.5,0.4,0.9,0.8,1.1l19,4.3c0.7,0.2,1.3-0.4,1.3-1.1v-62
			C449.3,41,448.6,40.4,448,40.6z"/>
	</g>
	<g>
		<path id="XMLID_28_" class="st3" d="M278,119.5c-5.4,0-10.1-0.4-14-1c-4-0.6-7.2-1.6-9.9-3c-2.7-1.4-4.8-3-6.4-4.9
			c-1.6-2-2.8-4.4-3.7-7.2c-0.9-2.7-1.4-5.8-1.7-9.3c-0.2-3.5-0.4-7.2-0.4-11.4V12.6h18.4v70.2c0,4,0.1,7.2,0.4,9.5
			c0.2,2.3,1,4.2,2.1,5.6c1.1,1.4,3,2.2,5.3,2.6c2.3,0.4,5.6,0.6,9.8,0.6v18.4H278z"/>
		<path id="XMLID_27_" class="st3" d="M358.3,118.4h-18.4V11.5h18.4V118.4z"/>
		<path class="st3" d="M157.3,119.5h-1c-4.6,0-9.8-1.9-13.8-4.1c-4.1-2.2-7.9-5.4-11.5-9.6c-4.7,8.6-13.1,13-25.1,13H38.4
			c-13.2,0-22.1-5.4-26.6-16.3c-2.1-4.9-3.1-11-3.1-17.9V72.7h18.2v11c0,5.7,0.9,9.8,2.7,12.2c1.9,2.5,4.6,3.7,8.4,3.7h67.3
			c3,0,5.3-0.2,7.2-0.9c1.7-0.6,3-1.4,3.6-2.2c0.6-1,1-2.1,1-3.6c0-0.1,0-0.4,0-0.5s-0.1-0.4-0.2-0.6c-0.1-0.2-0.2-0.5-0.4-0.9
			c-0.1-0.4-0.4-0.6-0.5-1c-0.2-0.4-0.5-0.7-0.7-1.2c-0.2-0.4-0.6-0.9-0.9-1.5c-0.4-0.5-0.7-1-1.1-1.6c-0.4-0.5-0.9-1.1-1.4-1.7
			s-1-1.2-1.6-1.9l-19-21.7c-0.6-0.7-1.2-1.4-1.7-2c-0.5-0.6-1-1.2-1.5-1.9c-0.5-0.6-0.9-1.1-1.4-1.6c-0.4-0.5-0.7-1-1.1-1.5
			c-1.6-2.2-2.3-4.8-2.1-7.9c0.2-3.6,1.2-6.7,3-9.1c1.7-2.5,4.1-4.3,7.2-5.4l63.6-18.3v19.2l-53.7,14.7l38.5,44.1
			c1.4,1.6,2.7,3,4.1,4.2c1.2,1.2,2.5,2.2,3.6,2.8c1.1,0.7,4.8,2.5,6.1,2.8c0.9,0.2,1.6,0.5,2.3,0.5h1.5c2.5,0,2.1,0.4,2.8,1.2
			c1.4,1.7,2.1,4,2.1,6.5v0.7c0,2.6-0.7,4.8-2.1,6.5C160.9,117.9,159.8,119.5,157.3,119.5z"/>
		<path class="st3" d="M320.8,68.3h-17.9V89l0,0c0,0.2,0,0.6,0,0.9c0,2.6-0.4,4.7-1.2,6.2c-0.9,1.5-1.9,2.6-3,3.3s-2.2,1.2-3.3,1.4
			c-1.1,0.1-2,0.2-2.6,0.2h-16.8v18.4h16.4c3.5,0,6.8-0.6,10.1-1.7c3.3-1.2,6.4-3,9.1-5.4c2.7-2.5,4.9-5.4,6.5-9.3
			c1.7-3.7,2.5-8.2,2.5-13.2c0-0.2,0-0.6,0-0.9L320.8,68.3z"/>
		<path class="st3" d="M231.2,84.1c-0.2-2.2-0.5-4.4-0.9-6.7c-0.4-2.3-0.7-4.6-1.2-6.8c-0.4-2.2-0.9-4.3-1.2-6.2
			c-0.2-1.1-0.6-2.1-0.7-3c-0.1-0.9-0.6-2.5-0.6-2.5c-0.9-2.8-2-5.7-3.5-8.2c-1.5-2.7-3.3-5.1-5.7-7c-2.2-2-4.9-3.7-7.9-4.9
			c-3.1-1.2-6.5-2-10.5-2.1c-4.4-0.2-8.5,0.5-12.2,2c-3.7,1.6-6.9,3.7-9.8,6.4c-2.7,2.7-4.8,5.9-6.4,9.6c-1.5,3.7-2.3,7.5-2.3,11.7
			c0,5.2,1,9.8,3,13.5c2,3.7,4.7,6.8,8.4,9c3.7,2.2,8.2,3.7,13.3,4.4c5.2,0.7,13.8,0.4,20.4-0.5c-0.2,1.1-0.5,2.2-1,3
			c-0.9,1.5-1.9,2.6-3,3.3s-2.2,1.2-3.3,1.4c-1.1,0.1-2,0.2-2.6,0.2h-5.3h-0.1c-3.1,0-6.3,0-10.5,0h-8.3h-21.9v18.4h30.3l0,0H203
			c3.5,0,6.8-0.6,10.1-1.7c3.3-1.2,6.4-3,9.1-5.4c2.7-2.5,4.9-5.4,6.5-9.3c1.7-3.7,2.5-8.2,2.5-13.2
			C231.5,88.2,231.4,86.4,231.2,84.1z M191.3,76.2c-4.2-1.4-6.3-5.6-6.3-9.9c0-2,0.4-3.6,1.1-5.1c0.7-1.5,1.7-2.7,3.1-3.7
			c1.2-1,2.7-1.7,4.4-2.1s3.5-0.5,5.2-0.4c2.8,0.2,5.1,1.2,6.7,2.6c1.5,1.4,2.2,2.2,3,4.1c0,0.1,0.7,2.2,0.7,2.3
			c0.2,0.9,0.9,3.7,1.2,5.3l0,0l1.5,7.7C203.7,77.1,195.3,77.6,191.3,76.2z"/>
		<path class="st3" d="M181.1,29.6c-2-2-3-4.3-3-7.2s1-5.2,3-7.2c2-2,4.3-3,7.2-3c1,0,1.9,0.1,2.7,0.4c0.9,0.2,1.6,0.6,2.5,1
			c0.7,0.5,1.5,1,2.1,1.6c1,1,1.7,2,2.2,3.2c0.5,1.2,0.7,2.5,0.7,3.8c0,0.4,0,0.6,0,0.9c0,0.2,0,0.5-0.1,0.9c0,0.2-0.1,0.5-0.1,0.7
			c0,0.2-0.1,0.5-0.2,0.7c-0.1,0.2-0.1,0.5-0.2,0.7c-0.1,0.2-0.2,0.5-0.4,0.7c-0.1,0.2-0.2,0.5-0.4,0.6c-0.1,0.2-0.2,0.4-0.4,0.6
			c-0.1,0.2-0.2,0.4-0.5,0.6c-0.2,0.2-0.4,0.4-0.6,0.6c-2,2-4.3,3-7.2,3C185.5,32.6,183.1,31.6,181.1,29.6z"/>
		<path class="st3" d="M198.4,22.5c0-2.8,1-5.2,3-7.2c2-2,4.3-3,7.2-3c1.4,0,2.7,0.2,4,0.7s2.3,1.2,3.3,2.2c1,1,1.7,2.1,2.2,3.2
			c0.5,1.2,0.7,2.5,0.7,3.8c0,1.5-0.2,2.7-0.7,4c-0.5,1.2-1.2,2.2-2.2,3.2c-0.6,0.6-1.4,1.2-2.1,1.6c-0.7,0.5-1.5,0.7-2.3,1
			c-0.9,0.2-1.7,0.4-2.7,0.4c-1.4,0-2.7-0.2-4-0.7c-1.2-0.5-2.3-1.2-3.3-2.2c-1-1-1.7-2.1-2.2-3.2C198.7,25.2,198.4,23.8,198.4,22.5
			z"/>
		<path class="st3" d="M283,49.9c-2-2-3-4.3-3-7.2c0-2.8,1-5.2,3-7.2s4.3-3,7.2-3c1,0,1.9,0.1,2.7,0.4c0.9,0.2,1.6,0.6,2.5,1
			c0.7,0.5,1.5,1,2.1,1.6c1,1,1.7,2,2.2,3.2s0.7,2.5,0.7,3.8c0,0.4,0,0.6,0,0.9s0,0.5-0.1,0.9c0,0.2-0.1,0.5-0.1,0.7
			c0,0.2-0.1,0.5-0.2,0.7c-0.1,0.2-0.1,0.5-0.2,0.7c-0.1,0.2-0.2,0.5-0.4,0.7c-0.1,0.2-0.2,0.5-0.4,0.6c-0.1,0.2-0.2,0.4-0.4,0.6
			c-0.1,0.2-0.2,0.4-0.5,0.6c-0.2,0.2-0.4,0.4-0.6,0.6c-2,2-4.3,3-7.2,3C287.3,52.9,284.8,51.9,283,49.9z"/>
		<path class="st3" d="M300.1,42.7c0-2.8,1-5.2,3-7.2c2-2,4.3-3,7.2-3c1.4,0,2.7,0.2,4,0.7c1.2,0.5,2.3,1.2,3.3,2.2
			c1,1,1.7,2.1,2.2,3.2c0.5,1.2,0.7,2.5,0.7,3.8c0,1.5-0.2,2.7-0.7,4c-0.5,1.2-1.2,2.2-2.2,3.2c-0.6,0.6-1.4,1.2-2.1,1.6
			c-0.7,0.5-1.5,0.7-2.3,1c-0.9,0.2-1.7,0.4-2.7,0.4c-1.4,0-2.7-0.2-4-0.7c-1.2-0.5-2.3-1.2-3.3-2.2c-1-1-1.7-2.1-2.2-3.2
			C300.4,45.5,300.1,44.2,300.1,42.7z"/>
	</g>
</g>
</svg>
