<svg width="72" height="72" viewBox="0 0 72 72" fill="none" xmlns="http://www.w3.org/2000/svg">
<path fill-rule="evenodd" clip-rule="evenodd" d="M35.3891 10.3863L48.5873 35.9612L61.256 59.2592C62.2337 60.9669 61.7449 62.4713 59.9525 62.4713L34.6966 62.3493H10.0109C8.21858 62.3493 7.36313 61.4954 8.54446 59.2998L20.8058 35.9205L34.0041 10.4269C34.3299 9.85769 35.0632 9.85769 35.3891 10.4269V10.3863Z" fill="#BB2B4C"/>
<path d="M36.9667 10.4066L50.2678 35.7946L62.5763 59.2784C63.6086 61.0238 63.0924 62.5313 61.266 62.5313H11.3174C9.49094 62.5313 8.61743 61.6585 9.84828 59.4371L22.2362 35.8342L35.5373 10.4463C35.8946 9.85124 36.6093 9.85124 36.9667 10.4463V10.4066Z" stroke="black" stroke-miterlimit="1.63"/>
<path fill-rule="evenodd" clip-rule="evenodd" d="M31.7802 44.4294H40.0388C41.1505 44.4294 42.0637 45.3418 42.0637 46.4525V62.5183H29.7949V46.4525C29.7949 45.3418 30.7081 44.4294 31.8199 44.4294H31.7802Z" fill="#FAE7ED"/>
<path fill-rule="evenodd" clip-rule="evenodd" d="M35.5137 26.381H38.4121C38.9283 26.381 39.365 26.8174 39.365 27.3331V34.3941C39.365 34.9098 38.9283 35.3462 38.4121 35.3462H35.5137V26.381Z" fill="#FAE7ED"/>
<path fill-rule="evenodd" clip-rule="evenodd" d="M35.5254 35.3462H32.6269C32.1108 35.3462 31.674 34.9098 31.674 34.3941V27.3331C31.674 26.8174 32.1108 26.381 32.6269 26.381H35.5254V35.3462Z" fill="#FAE7ED"/>
<path fill-rule="evenodd" clip-rule="evenodd" d="M36.2793 25.7413H39.1777C39.6939 25.7413 40.1307 26.1777 40.1307 26.6934V33.7544C40.1307 34.2701 39.6939 34.7065 39.1777 34.7065H36.2793V25.7413Z" stroke="black" stroke-width="0.7" stroke-miterlimit="1.63"/>
<path fill-rule="evenodd" clip-rule="evenodd" d="M36.2891 34.7063H33.3906C32.8744 34.7063 32.4377 34.27 32.4377 33.7543V26.6933C32.4377 26.1776 32.8744 25.7412 33.3906 25.7412H36.2891V34.7063Z" stroke="black" stroke-width="0.7" stroke-miterlimit="1.63"/>
<path fill-rule="evenodd" clip-rule="evenodd" d="M32.9266 44.4294H41.1852C42.297 44.4294 43.2102 45.3418 43.2102 46.4525V62.5183H30.9414V46.4525C30.9414 45.3418 31.8546 44.4294 32.9664 44.4294H32.9266Z" stroke="black" stroke-miterlimit="1.63"/>
<path d="M33.8019 55.9333C34.1747 55.9333 34.4769 55.6314 34.4769 55.259C34.4769 54.8865 34.1747 54.5846 33.8019 54.5846C33.4292 54.5846 33.127 54.8865 33.127 55.259C33.127 55.6314 33.4292 55.9333 33.8019 55.9333Z" fill="#BB2B4C"/>
<path d="M9.40234 60.2956L18.3609 60.2956" stroke="black" stroke-miterlimit="1.63"/>
<path d="M11.8359 56.4562L23.354 56.4562" stroke="black" stroke-miterlimit="1.63"/>
<path d="M14.5234 50.0573L20.9224 50.0573" stroke="black" stroke-miterlimit="1.63"/>
<path d="M54.5273 57.5202H61.5952" stroke="black" stroke-miterlimit="1.63"/>
<path d="M50.4375 52.5615H58.6736" stroke="black" stroke-miterlimit="1.63"/>
<path d="M51.6367 46.2178H55.4761" stroke="black" stroke-miterlimit="1.63"/>
</svg>
