<svg width="24" height="24" viewBox="0 0 24 24" fill="none" xmlns="http://www.w3.org/2000/svg">
<path d="M22 2L15 9M10.3894 13.6106L12.5 11.5M6.79394 17.2061L5.59547 18.4045M9.19093 12.4121L11.5879 14.8091C12.1235 15.3447 12.2257 16.1495 11.8946 16.7878L9.19093 22L2 14.8091L7.2122 12.1054C7.85055 11.7743 8.65534 11.8765 9.19093 12.4121Z" stroke="#48484E" stroke-width="1.8" stroke-miterlimit="10" stroke-linecap="round" stroke-linejoin="round"/>
<path d="M14 22H17.4" stroke="#48484E" stroke-width="1.8" stroke-miterlimit="10" stroke-linecap="round" stroke-linejoin="round"/>
<path d="M8.70966 2.61555C9.1143 2.23392 9.65979 2 10.2599 2C11.508 2 12.5198 3.01179 12.5198 4.25989C12.5198 4.88658 12.2647 5.45369 11.8527 5.86305" stroke="#48484E" stroke-width="1.8" stroke-linecap="round"/>
<line x1="3.47201" y1="2.39999" x2="21.7154" y2="20.6433" stroke="#F03E58" stroke-width="1.8" stroke-linecap="round"/>
</svg>
