<svg width="72" height="72" viewBox="0 0 72 72" fill="none" xmlns="http://www.w3.org/2000/svg">
<path d="M30.9581 11.2517H38.9577C40.4121 11.2517 41.3801 12.7547 40.7787 14.0788L24.178 50.6249C23.6211 51.851 22.036 52.1874 21.0291 51.2932L9.1122 40.7106C8.3196 40.0068 8.21381 38.8068 8.87104 37.9751L29.3889 12.0116C29.7682 11.5317 30.3463 11.2517 30.9581 11.2517Z" fill="#FBE7EE"/>
<path d="M30.9581 11.2517H38.9577C40.4121 11.2517 41.3801 12.7547 40.7787 14.0788L24.178 50.6249C23.6211 51.851 22.036 52.1874 21.0291 51.2932L9.1122 40.7106C8.3196 40.0068 8.21381 38.8068 8.87104 37.9751L29.3889 12.0116C29.7682 11.5317 30.3463 11.2517 30.9581 11.2517Z" stroke="black"/>
<path d="M56.361 14.5457L44.9705 9.64939C44.3513 9.38321 43.6396 9.44683 43.0774 9.81861L33.1419 16.3891C32.761 16.641 32.4778 17.0156 32.3393 17.4507L21.6913 50.8987C21.3738 51.8959 21.8788 52.9692 22.8495 53.3604L47.2801 63.2056C48.3489 63.6363 49.5596 63.0772 49.9247 61.9843L61.3359 27.8233C61.4779 27.3982 61.473 26.9377 61.3219 26.5157L57.4542 15.7092C57.2671 15.1864 56.8711 14.7649 56.361 14.5457Z" fill="#BB2C4E"/>
<path d="M31.539 43.5548C31.7573 43.6315 32.0049 43.6247 32.2298 43.5159L51.8892 34.0149C52.339 33.7975 52.5281 33.2552 52.3115 32.8038C52.0949 32.3523 51.5546 32.1625 51.1048 32.38L31.4454 41.8809C30.7239 42.1988 30.8 43.3244 31.539 43.5548V43.5548Z" fill="#FBE7EE"/>
<path d="M36.5059 35.1729C38.5447 35.8891 40.784 34.8069 41.4976 32.7606C42.2111 30.7143 41.1328 28.4667 39.0941 27.7505L38.9803 27.7106C36.9415 26.9944 34.7022 28.0766 33.9886 30.1229C33.2751 32.1692 34.3534 34.4168 36.3921 35.133L36.5059 35.1729ZM35.6952 30.7224C36.0794 29.6206 37.2852 29.0378 38.383 29.4234L38.4968 29.4634C39.5946 29.849 40.1752 31.0593 39.791 32.1611C39.4068 33.2629 38.201 33.8457 37.1032 33.4601L36.9894 33.4201C35.8916 33.0345 35.311 31.8242 35.6952 30.7224Z" fill="#FBE7EE"/>
<path d="M44.3951 48.0707L44.5088 48.1107C46.5476 48.8269 48.787 47.7446 49.5005 45.6983C50.214 43.6521 49.1358 41.4045 47.097 40.6883L46.9832 40.6483C44.9444 39.9322 42.7051 41.0144 41.9916 43.0607C41.278 45.107 42.3563 47.3546 44.3951 48.0707ZM46.386 42.3612L46.4997 42.4012C47.5975 42.7868 48.1781 43.9971 47.7939 45.0989C47.4097 46.2007 46.2039 46.7835 45.1061 46.3978L44.9923 46.3579C43.8946 45.9723 43.3139 44.762 43.6981 43.6602C44.0823 42.5583 45.2882 41.9756 46.386 42.3612Z" fill="#FBE7EE"/>
<path d="M58.155 14.5589L46.0734 9.61286C45.4756 9.36813 44.7964 9.4272 44.2498 9.77145L33.7365 16.393C33.3411 16.642 33.0454 17.0216 32.9007 17.4659L21.7334 51.7536C21.397 52.7865 21.9466 53.8991 22.9714 54.2596L48.769 63.3356C49.8117 63.7024 50.9542 63.1539 51.32 62.1109L63.336 27.8526C63.4913 27.4098 63.486 26.9264 63.3209 26.4871L59.2694 15.7063C59.0737 15.1854 58.6699 14.7697 58.155 14.5589Z" stroke="black"/>
<path d="M49.5552 20.4156C49.5552 21.8219 48.4199 22.9587 47.0232 22.9587C45.6266 22.9587 44.4912 21.8219 44.4912 20.4156C44.4912 19.0093 45.6266 17.8724 47.0232 17.8724C48.4199 17.8724 49.5552 19.0093 49.5552 20.4156Z" fill="white" stroke="black"/>
<path d="M56.5371 8.45274C56.5371 8.45274 55.1605 11.1713 53.7142 13.1749C52.3169 15.1107 49.4047 17.5061 49.4047 17.5061" stroke="black" stroke-linecap="round"/>
</svg>