<svg width="72" height="72" viewBox="0 0 72 72" fill="none" xmlns="http://www.w3.org/2000/svg">
<circle cx="35" cy="37" r="26" fill="#FBE7EE"/>
<path d="M63 36C63 30.6599 61.4165 25.4397 58.4497 20.9996C55.4829 16.5595 51.2661 13.0988 46.3325 11.0553C41.3988 9.01169 35.97 8.477 30.7326 9.5188C25.4951 10.5606 20.6841 13.1321 16.9081 16.9081C13.1321 20.6841 10.5606 25.4951 9.5188 30.7326C8.477 35.97 9.01169 41.3988 11.0553 46.3325C13.0988 51.2661 16.5595 55.4829 20.9996 58.4497C25.4397 61.4165 30.6599 63 36 63" stroke="black" stroke-width="1.5" stroke-linecap="round"/>
<path d="M24 45L37.8535 36.6439C37.9378 36.5931 37.9726 36.4883 37.9353 36.3971L33.6923 26" stroke="black" stroke-width="1.5" stroke-linecap="round"/>
<path d="M32.2676 52.1891C32.9627 54.8572 34.3008 57.2887 36.1521 59.2482C38.0035 61.2077 40.3055 62.6288 42.8351 63.3739C45.3648 64.119 48.0364 64.1629 50.5913 63.5012C53.1463 62.8395 55.4979 61.4948 57.4185 59.5972C59.3391 57.6996 60.7636 55.3134 61.5541 52.6697C62.3446 50.026 62.4742 47.2144 61.9306 44.5071C61.3869 41.7998 60.1882 39.2886 58.4507 37.2166C56.7132 35.1446 54.4957 33.5821 52.0129 32.6803C51.9105 32.6438 51.7995 32.6431 51.6965 32.6782C51.5934 32.7134 51.5038 32.7825 51.4407 32.8753C51.3777 32.9682 51.3447 33.0798 51.3465 33.1938C51.3484 33.3077 51.385 33.4179 51.451 33.5079C53.3523 36.124 54.2604 39.3941 53.9991 42.6834C53.7377 45.9727 52.3254 49.0463 50.0365 51.3075C47.7476 53.5688 44.7454 54.8562 41.6129 54.9198C38.4803 54.9835 35.441 53.8188 33.085 51.6519C33.0038 51.578 32.9022 51.5336 32.795 51.525C32.6879 51.5164 32.5808 51.5441 32.4895 51.6041C32.3981 51.6642 32.3273 51.7533 32.2874 51.8586C32.2475 51.9638 32.2406 52.0797 32.2676 52.1891Z" fill="#BB2C4E"/>
<path d="M52.3099 32.5648L52.3111 32.5663C54.5154 35.2597 55.64 38.6761 55.4667 42.1521C55.2934 45.6281 53.8345 48.9157 51.3733 51.3765C48.9121 53.8373 45.6242 55.2957 42.148 55.4685C38.6725 55.6412 35.2568 54.5165 32.5639 52.3128C32.5574 52.3078 32.5496 52.3049 32.5414 52.3045C32.533 52.3042 32.5246 52.3065 32.5176 52.3112C32.5106 52.3159 32.5052 52.3227 32.5024 52.3307C32.4996 52.3382 32.4993 52.3463 32.5013 52.3541C33.3119 54.9594 34.7811 57.3115 36.7669 59.1829C38.754 61.0555 41.1909 62.3833 43.8417 63.0377C46.4926 63.6922 49.2675 63.6511 51.8978 62.9184C54.5281 62.1858 56.9246 60.7864 58.8553 58.8558C60.7861 56.9252 62.1856 54.5287 62.9183 51.8986C63.6511 49.2684 63.6922 46.4935 63.0378 43.8428C62.3834 41.192 61.0557 38.7551 59.183 36.7681C57.311 34.7817 54.9579 33.3121 52.3515 32.5016C52.3435 32.4992 52.335 32.4995 52.3271 32.5023C52.3191 32.5052 52.3122 32.5106 52.3075 32.5176C52.3028 32.5247 52.3005 32.5331 52.3009 32.5416C52.3013 32.5501 52.3045 32.5583 52.3099 32.5648Z" stroke="black"/>
<rect x="41.5" y="8.5997" width="22" height="10" rx="3.5" fill="white"/>
<rect x="41.5" y="8.5997" width="22" height="10" rx="3.5" stroke="black"/>
<path d="M48.256 14.3183V15H48.1864C48.0357 15 47.9012 14.9884 47.783 14.9652C47.667 14.9397 47.5638 14.9061 47.4734 14.8643C47.3853 14.8226 47.3076 14.7739 47.2404 14.7183C47.1731 14.6603 47.1151 14.6 47.0664 14.5374C46.969 14.6139 46.8705 14.6812 46.7708 14.7391C46.6734 14.7971 46.5679 14.8458 46.4543 14.8852C46.343 14.9223 46.2212 14.9513 46.089 14.9722C45.9569 14.9907 45.8085 15 45.6438 15C45.3702 15 45.1163 14.9443 44.8821 14.833C44.6502 14.7194 44.4357 14.5606 44.2386 14.3565L44.6317 13.8035C44.7708 13.9333 44.9111 14.0365 45.0525 14.113C45.194 14.1896 45.3343 14.2429 45.4734 14.273C45.5662 14.2939 45.6589 14.3043 45.7517 14.3043C45.7957 14.3043 45.8606 14.3009 45.9464 14.2939C46.0346 14.2846 46.1412 14.2557 46.2664 14.207C46.3847 14.1606 46.4809 14.1107 46.5551 14.0574C46.6317 14.0017 46.6896 13.9542 46.729 13.9148L45.6299 11.2713L46.263 11.007C46.3743 11.2783 46.4751 11.5252 46.5656 11.7478C46.6583 11.9704 46.7453 12.1814 46.8264 12.3809C46.9099 12.5803 46.9911 12.7774 47.0699 12.9722C47.1511 13.1646 47.2369 13.3664 47.3273 13.5774C47.3737 13.6887 47.4177 13.7907 47.4595 13.8835C47.5035 13.9739 47.5557 14.0516 47.616 14.1165C47.6763 14.1791 47.7517 14.229 47.8421 14.2661C47.9325 14.3009 48.0473 14.3183 48.1864 14.3183H48.256ZM48.1179 14.3183H48.7892C48.9237 14.3183 49.0547 14.3159 49.1823 14.3113C49.3098 14.3043 49.4281 14.287 49.5371 14.2591C49.6461 14.2313 49.7423 14.1907 49.8258 14.1374C49.9092 14.0817 49.9742 14.0052 50.0205 13.9078C50.0437 13.8591 50.0611 13.7977 50.0727 13.7235C50.0797 13.6748 50.0832 13.6226 50.0832 13.567C50.0832 13.5368 50.0808 13.4916 50.0762 13.4313C50.0716 13.3687 50.0565 13.2841 50.031 13.1774C50.0055 13.0684 49.9684 12.9548 49.9197 12.8365L49.6171 12.0922L50.2362 11.7861C50.2362 11.7884 50.2466 11.8128 50.2675 11.8591C50.2884 11.9032 50.315 11.9635 50.3475 12.04C50.3823 12.1165 50.4194 12.2058 50.4588 12.3078C50.4982 12.4075 50.5353 12.5142 50.5701 12.6278C50.6745 12.9641 50.7347 13.2609 50.751 13.5183C50.7533 13.5554 50.7545 13.5925 50.7545 13.6296C50.7545 13.8406 50.7197 14.0261 50.6501 14.1861C50.5805 14.3438 50.4878 14.4748 50.3718 14.5791C50.2582 14.6835 50.1272 14.767 49.9788 14.8296C49.8304 14.8922 49.6669 14.9362 49.4884 14.9617C49.3121 14.9872 49.1289 15 48.9388 15H48.1179V14.3183ZM49.3284 16.1374L48.7649 16.7009L48.1945 16.1339L48.7579 15.567L49.3284 16.1374ZM50.7545 16.1409L50.191 16.7078L49.6205 16.1374L50.184 15.5739L50.7545 16.1409ZM55.5763 14.3183V15H55.5068C55.356 15 55.2215 14.9884 55.1033 14.9652C54.9873 14.9397 54.8841 14.9061 54.7937 14.8643C54.7056 14.8226 54.6279 14.7739 54.5607 14.7183C54.4934 14.6603 54.4354 14.6 54.3868 14.5374C54.2894 14.6139 54.1908 14.6812 54.0911 14.7391C53.9937 14.7971 53.8882 14.8458 53.7746 14.8852C53.6633 14.9223 53.5415 14.9513 53.4094 14.9722C53.2772 14.9907 53.1288 15 52.9641 15C52.6905 15 52.4366 14.9443 52.2024 14.833C51.9705 14.7194 51.756 14.5606 51.5589 14.3565L51.952 13.8035C52.0911 13.9333 52.2314 14.0365 52.3728 14.113C52.5143 14.1896 52.6546 14.2429 52.7937 14.273C52.8865 14.2939 52.9792 14.3043 53.072 14.3043C53.116 14.3043 53.181 14.3009 53.2668 14.2939C53.3549 14.2846 53.4615 14.2557 53.5868 14.207C53.705 14.1606 53.8012 14.1107 53.8754 14.0574C53.952 14.0017 54.0099 13.9542 54.0494 13.9148L52.9502 11.2713L53.5833 11.007C53.6946 11.2783 53.7954 11.5252 53.8859 11.7478C53.9786 11.9704 54.0656 12.1814 54.1468 12.3809C54.2302 12.5803 54.3114 12.7774 54.3902 12.9722C54.4714 13.1646 54.5572 13.3664 54.6476 13.5774C54.694 13.6887 54.7381 13.7907 54.7798 13.8835C54.8239 13.9739 54.876 14.0516 54.9363 14.1165C54.9966 14.1791 55.072 14.229 55.1624 14.2661C55.2528 14.3009 55.3676 14.3183 55.5068 14.3183H55.5763ZM55.4382 14.3183H56.193C56.5014 14.3183 56.8098 14.2893 57.1182 14.2313C57.4267 14.171 57.7304 14.0922 58.0296 13.9948C58.3287 13.8974 58.6209 13.7861 58.9061 13.6609C59.1913 13.5357 59.4661 13.407 59.7304 13.2748C59.5704 13.2191 59.4174 13.1588 59.2713 13.0939C59.1252 13.029 58.9814 12.9629 58.84 12.8957C58.731 12.8446 58.6243 12.7959 58.52 12.7496C58.418 12.7009 58.3182 12.658 58.2209 12.6209C58.1258 12.5838 58.0353 12.5548 57.9496 12.5339C57.8638 12.5107 57.7849 12.4991 57.713 12.4991C57.618 12.4991 57.5275 12.52 57.4417 12.5617C57.3559 12.6035 57.2759 12.6568 57.2017 12.7217C57.1298 12.7843 57.0649 12.8528 57.0069 12.927C56.949 12.9988 56.8991 13.0672 56.8574 13.1322C56.8156 13.1948 56.7832 13.2481 56.76 13.2922C56.7391 13.3339 56.7287 13.3559 56.7287 13.3583L56.1026 13.0765C56.1049 13.0719 56.1142 13.0522 56.1304 13.0174C56.149 12.9803 56.1745 12.9339 56.2069 12.8783C56.2417 12.8226 56.2823 12.7588 56.3287 12.687C56.3774 12.6151 56.433 12.542 56.4956 12.4678C56.6765 12.2499 56.8678 12.0864 57.0696 11.9774C57.2736 11.8684 57.4881 11.8139 57.713 11.8139C57.8243 11.8139 57.9368 11.8267 58.0504 11.8522C58.1664 11.8777 58.2835 11.9125 58.4017 11.9565C58.52 11.9983 58.6406 12.047 58.7635 12.1026C58.8864 12.1583 59.0104 12.2151 59.1356 12.273C59.2725 12.338 59.4104 12.4017 59.5496 12.4643C59.691 12.527 59.8325 12.5838 59.9739 12.6348C60.1153 12.6835 60.2568 12.7229 60.3982 12.753C60.5397 12.7832 60.6823 12.7983 60.8261 12.7983L60.9582 13.4591C60.7959 13.5264 60.6348 13.5994 60.4748 13.6783C60.3148 13.7548 60.1478 13.8359 59.9739 13.9217C59.7188 14.0493 59.444 14.1768 59.1496 14.3043C58.8574 14.4319 58.5501 14.5478 58.2278 14.6522C57.9078 14.7542 57.5762 14.8377 57.233 14.9026C56.8898 14.9675 56.5432 15 56.193 15H55.4382V14.3183ZM58.8748 16.2383L58.3078 16.8052L57.7374 16.2348L58.3043 15.6678L58.8748 16.2383Z" fill="black"/>
</svg>
