<svg width="24" height="24" viewBox="0 0 24 24" fill="none" xmlns="http://www.w3.org/2000/svg">
<path d="M18.7366 13.9491C19.1625 13.7194 19.5626 13.4444 19.9224 13.0847L20.5078 12.4993C22.4976 10.5095 22.4976 7.28345 20.5078 5.29366L18.7064 3.49226C16.7167 1.50248 13.4906 1.50248 11.5008 3.49226L10.9154 4.07773C10.5658 4.42727 10.2776 4.80782 10.0509 5.22028" stroke="#48484E" stroke-width="1.8" stroke-miterlimit="10" stroke-linecap="round" stroke-linejoin="round"/>
<path d="M10.1012 10.2692L3.5251 16.8721C2.54235 17.8549 2.00607 19.1797 2.00002 20.5375C1.99637 21.343 2.65696 22.0036 3.46247 22C4.30497 21.9961 5.13406 21.7887 5.87926 21.3957C6.50133 21.0674 6.97137 20.5204 7.25159 19.8753C7.33099 19.6925 7.4457 19.5284 7.58735 19.3872C7.86938 19.1061 8.26676 18.9496 8.69595 18.9491C9.13015 18.9486 9.54417 18.7528 9.82701 18.4658C10.1045 18.1843 10.3046 17.7758 10.3051 17.3498C10.3057 16.9197 10.4218 16.4928 10.704 16.2106C10.9863 15.9284 11.4118 15.814 11.842 15.8135C12.2788 15.813 12.6974 15.6023 12.9805 15.3124C13.2551 15.0313 13.5428 14.4939 13.7308 13.8592" stroke="#48484E" stroke-width="1.8" stroke-miterlimit="10" stroke-linecap="round" stroke-linejoin="round"/>
<path d="M21.999 21.9996L2 2.00057" stroke="#F03E58" stroke-width="1.8" stroke-miterlimit="10" stroke-linecap="round" stroke-linejoin="round"/>
<path d="M13.4004 7.21553C13.805 6.83389 14.3505 6.59998 14.9506 6.59998C16.1987 6.59998 17.2105 7.61176 17.2105 8.85986C17.2105 9.48655 16.9554 10.0537 16.5434 10.463" stroke="#48484E" stroke-width="1.8" stroke-linecap="round"/>
</svg>
