<svg width="72" height="72" viewBox="0 0 72 72" fill="none" xmlns="http://www.w3.org/2000/svg">
<path d="M62.2908 38.9183C61.6366 47.8578 56.8211 51.2846 49.721 51.5278C42.3652 51.7798 36.2202 47.9492 36.2202 38.9183C36.2202 29.3217 45.628 9.01254 49.721 9.01254C53.814 9.01254 63.0308 28.8072 62.2908 38.9183Z" fill="#BB2C4E"/>
<path d="M34.0706 37.9058C33.4164 46.8453 28.6009 50.272 21.5008 50.5153C14.145 50.7673 8 46.9366 8 37.9058C8 28.3091 17.4078 8 21.5008 8C25.5938 8 34.8106 27.7946 34.0706 37.9058Z" fill="#BB2C4E"/>
<path d="M35.1175 37.9058C34.4632 46.8453 29.6477 50.272 22.5477 50.5153C15.1919 50.7673 9.04687 46.9366 9.04688 37.9058C9.04688 28.3091 18.4546 8 22.5477 8C26.6407 8 35.8575 27.7946 35.1175 37.9058Z" stroke="black"/>
<path d="M63.3377 38.9183C62.6834 47.8578 57.868 51.2846 50.7679 51.5278C43.4121 51.7798 37.2671 47.9492 37.2671 38.9183C37.2671 29.3217 46.6748 9.01254 50.7679 9.01254C54.8609 9.01254 64.0777 28.8072 63.3377 38.9183Z" stroke="black"/>
<path d="M22.6328 33.3136V63.69" stroke="black" stroke-linecap="round"/>
<path d="M26.814 35.3387L22.6328 39.3889" stroke="black" stroke-linecap="round"/>
<path d="M18.4565 39.3889L22.6378 43.4391" stroke="black" stroke-linecap="round"/>
<path d="M49.8154 31.2886V63.69" stroke="black" stroke-linecap="round"/>
<path d="M54.5201 34.3262L50.3389 37.8701" stroke="black" stroke-linecap="round"/>
<path d="M46.1528 35.845L49.8114 43.4391" stroke="black" stroke-linecap="round"/>
<path d="M43.5038 49.3901C43.1375 54.4984 40.4408 56.4565 36.4647 56.5955C32.3455 56.7395 28.9043 54.5506 28.9043 49.3901C28.9043 43.9063 32.3586 32.3011 36.4647 32.3011C40.5709 32.3011 43.9182 43.6123 43.5038 49.3901Z" fill="#FBE7EE"/>
<path d="M44.5595 49.3901C44.1928 54.4984 41.4941 56.4565 37.515 56.5955C33.3926 56.7395 29.9487 54.5506 29.9487 49.3901C29.9487 43.9063 35.2211 32.3011 37.515 32.3011C39.8088 32.3011 44.9742 43.6123 44.5595 49.3901Z" stroke="black"/>
<path d="M37.2671 46.4767V63.69" stroke="black" stroke-linecap="round"/>
<path d="M37.2671 50.5269L39.8804 48.5018" stroke="black" stroke-linecap="round"/>
<path d="M37.2729 53.0583L34.6597 49.5144" stroke="black" stroke-linecap="round"/>
</svg>
