<svg width="72" height="72" viewBox="0 0 72 72" fill="none" xmlns="http://www.w3.org/2000/svg">
<path d="M29.419 44.6501L28.607 43.9343C28.3375 43.6974 28.1703 43.3633 28.1413 43.0035C28.1122 42.6436 28.2235 42.2865 28.4514 42.0085L31.3542 38.4719C31.4657 38.3321 31.6052 38.2179 31.7635 38.1367C31.9219 38.0556 32.0955 38.0095 32.2729 38.0013C32.4502 37.9932 32.6272 38.0232 32.7922 38.0895C32.9572 38.1557 33.1064 38.2567 33.2299 38.3856C33.2888 38.4455 33.3305 38.5204 33.3506 38.6024C33.3706 38.6843 33.3682 38.7703 33.3436 38.851L31.878 43.9151C31.8044 44.1586 31.672 44.3797 31.4928 44.5585C31.3135 44.7373 31.0931 44.8681 30.8513 44.9391C30.6096 45.0102 30.3542 45.0192 30.1081 44.9654C29.862 44.9116 29.6331 44.7966 29.442 44.6309" fill="#FBE7EE"/>
<path d="M25.0847 37.3962L25.0046 36.1706C24.9748 35.7619 25.0902 35.3564 25.3255 35.043C25.5609 34.7296 25.8971 34.5337 26.2606 34.4982L30.8745 34.0111C31.0561 33.9857 31.2404 34.0041 31.4151 34.0652C31.5898 34.1264 31.7509 34.2287 31.8875 34.3655C32.0242 34.5022 32.1333 34.6702 32.2076 34.8581C32.2819 35.0461 32.3195 35.2498 32.3181 35.4554C32.3168 35.5503 32.2935 35.6432 32.2504 35.7249C32.2073 35.8065 32.146 35.8741 32.0725 35.9208L27.3937 38.7863C27.1674 38.9261 26.9134 38.9996 26.6552 39C26.397 39.0004 26.1428 38.9277 25.9162 38.7885C25.6895 38.6494 25.4977 38.4484 25.3584 38.2039C25.2191 37.9595 25.1369 37.6796 25.1192 37.39" fill="#FBE7EE"/>
<path d="M26.4785 28.4817L27.3354 27.5487C27.6195 27.234 28.0231 27.0386 28.4582 27.0051C28.8934 26.9716 29.3249 27.1027 29.6587 27.3698L33.8923 30.7055C34.0505 30.8387 34.1781 31.0014 34.2668 31.1836C34.3556 31.3657 34.4038 31.5633 34.4082 31.764C34.4127 31.9647 34.3734 32.164 34.2928 32.3496C34.2122 32.5351 34.092 32.7028 33.9398 32.8422C33.8663 32.9097 33.7755 32.9579 33.6764 32.9822C33.5774 33.0065 33.4734 33.0059 33.3746 32.9806L27.3436 31.2887C27.0521 31.2041 26.7875 31.052 26.5734 30.846C26.3594 30.6401 26.2028 30.3868 26.1178 30.109C26.0328 29.8312 26.022 29.5377 26.0864 29.2549C26.1508 28.9722 26.2884 28.7091 26.4867 28.4895" fill="#FBE7EE"/>
<path d="M34.7058 24.1112L35.7383 24.0038C36.083 23.9754 36.4234 24.1065 36.6856 24.3687C36.9477 24.6308 37.1104 25.0028 37.1383 25.4038L37.5396 30.4579C37.5557 30.6531 37.5366 30.8501 37.4835 31.0362C37.4304 31.2223 37.3444 31.3934 37.2312 31.5386C37.118 31.6838 36.98 31.7998 36.826 31.8793C36.672 31.9587 36.5054 31.9998 36.337 32C36.2575 31.9986 36.1798 31.973 36.1114 31.9258C36.0431 31.8786 35.9865 31.8114 35.9474 31.7309L33.5422 26.6057C33.4251 26.3578 33.3636 26.0796 33.3633 25.7967C33.363 25.5139 33.4238 25.2355 33.5403 24.9872C33.6568 24.7389 33.8251 24.5288 34.0297 24.3762C34.2343 24.2237 34.4686 24.1335 34.711 24.1142" fill="#FBE7EE"/>
<path d="M43.5707 26.3667L44.3838 27.0818C44.6577 27.3154 44.8286 27.6491 44.8591 28.0097C44.8896 28.3703 44.7771 28.7284 44.5464 29.0054L41.6425 32.5396C41.5304 32.6761 41.3912 32.7874 41.2339 32.8665C41.0766 32.9455 40.9047 32.9906 40.7292 32.9987C40.5536 33.0068 40.3784 32.9778 40.2146 32.9136C40.0508 32.8494 39.9021 32.7513 39.778 32.6258C39.7166 32.5676 39.6726 32.4931 39.6513 32.4109C39.63 32.3287 39.6321 32.242 39.6574 32.1609L41.1317 27.09C41.2036 26.8454 41.3352 26.623 41.5145 26.4431C41.6937 26.2632 41.9149 26.1317 42.1577 26.0605C42.4005 25.9893 42.6571 25.9808 42.904 26.0357C43.1509 26.0907 43.3802 26.2073 43.5707 26.3749" fill="#FBE7EE"/>
<path d="M47.9234 33.6025L47.9952 34.8392C48.025 35.2465 47.9096 35.6505 47.6743 35.9628C47.4389 36.2751 47.1027 36.4703 46.7392 36.5057L42.1253 36.9911C41.9442 37.0136 41.7608 36.9933 41.5872 36.9313C41.4136 36.8694 41.2535 36.7673 41.1174 36.6315C40.9812 36.4958 40.8721 36.3296 40.797 36.1436C40.722 35.9576 40.6827 35.756 40.6816 35.5519C40.6828 35.4563 40.7068 35.3629 40.7513 35.2813C40.7957 35.1997 40.8589 35.133 40.9342 35.0881L45.6089 32.2112C45.8357 32.0727 46.09 32.0001 46.3484 32C46.6068 31.9999 46.861 32.0724 47.088 32.2108C47.3149 32.3492 47.5072 32.5491 47.6474 32.7922C47.7876 33.0353 47.8711 33.3139 47.8903 33.6025" fill="#FBE7EE"/>
<path d="M46.5559 42.5158L45.7005 43.4489C45.421 43.7632 45.0218 43.9594 44.5904 43.9944C44.159 44.0294 43.7306 43.9003 43.3992 43.6355L39.1465 40.2998C38.9822 40.1718 38.848 40.0123 38.7527 39.8318C38.6574 39.6512 38.6031 39.4536 38.5934 39.2518C38.5837 39.05 38.6187 38.8485 38.6963 38.6604C38.7738 38.4723 38.8921 38.3018 39.0435 38.1601C39.1141 38.091 39.2033 38.0416 39.3013 38.0172C39.3993 37.9928 39.5025 37.9944 39.5996 38.0216L45.6514 39.7136C45.944 39.7961 46.2101 39.9471 46.4253 40.1529C46.6405 40.3586 46.7979 40.6124 46.8831 40.8911C46.9682 41.1697 46.9784 41.4642 46.9127 41.7475C46.8469 42.0309 46.7074 42.294 46.5069 42.5127" fill="#FBE7EE"/>
<path d="M38.297 46.9169L37.259 46.9957C36.9172 47.0258 36.579 46.8968 36.3184 46.6369C36.0578 46.3769 35.8959 46.0071 35.868 45.6083L35.4606 40.5449C35.4445 40.3494 35.4636 40.152 35.5167 39.9656C35.5697 39.7792 35.6556 39.6077 35.7687 39.4623C35.8818 39.3168 36.0197 39.2006 36.1736 39.121C36.3274 39.0414 36.4938 39.0002 36.6621 39C36.744 39.0006 36.8243 39.0265 36.8947 39.0752C36.9652 39.124 37.0233 39.1936 37.0631 39.2772L39.4596 44.4042C39.5759 44.6531 39.6368 44.9322 39.6369 45.2157C39.637 45.4993 39.5761 45.7783 39.46 46.0274C39.3438 46.2764 39.176 46.4875 38.972 46.6413C38.7679 46.7951 38.5341 46.8867 38.2918 46.9079" fill="#FBE7EE"/>
<circle cx="35.3008" cy="35.2" r="27" fill="#BB2C4E"/>
<circle cx="37.0996" cy="35.5" r="27" stroke="black"/>
<path d="M30.034 43.8545L29.2926 43.2009C29.0466 42.9846 28.894 42.6796 28.8674 42.351C28.8409 42.0224 28.9425 41.6964 29.1506 41.4426L31.801 38.2134C31.9027 38.0858 32.0301 37.9815 32.1747 37.9075C32.3193 37.8334 32.4778 37.7913 32.6398 37.7838C32.8017 37.7764 32.9633 37.8038 33.114 37.8643C33.2646 37.9248 33.4008 38.017 33.5136 38.1347C33.5674 38.1894 33.6055 38.2578 33.6237 38.3326C33.642 38.4075 33.6398 38.4859 33.6174 38.5596L32.2792 43.1834C32.212 43.4057 32.0911 43.6076 31.9275 43.7708C31.7638 43.934 31.5626 44.0535 31.3418 44.1183C31.1211 44.1832 30.8879 44.1914 30.6632 44.1423C30.4386 44.0932 30.2296 43.9882 30.055 43.837" fill="#FBE7EE"/>
<path d="M26.0773 37.2313L26.0042 36.1123C25.977 35.7391 26.0823 35.3689 26.2972 35.0828C26.5121 34.7966 26.8191 34.6178 27.151 34.5853L31.3637 34.1405C31.5294 34.1173 31.6977 34.1342 31.8572 34.19C32.0168 34.2458 32.1638 34.3393 32.2886 34.4641C32.4134 34.589 32.513 34.7423 32.5808 34.914C32.6487 35.0856 32.6831 35.2715 32.6818 35.4593C32.6806 35.546 32.6593 35.6308 32.6199 35.7053C32.5806 35.7798 32.5246 35.8415 32.4575 35.8842L28.1855 38.5005C27.9789 38.6282 27.747 38.6953 27.5113 38.6956C27.2755 38.696 27.0434 38.6296 26.8365 38.5026C26.6296 38.3756 26.4544 38.192 26.3273 37.9688C26.2001 37.7457 26.125 37.4901 26.1088 37.2257" fill="#FBE7EE"/>
<path d="M27.349 29.092L28.1314 28.2401C28.3908 27.9528 28.7593 27.7744 29.1566 27.7438C29.5539 27.7132 29.9479 27.8329 30.2526 28.0768L34.1181 31.1224C34.2626 31.244 34.379 31.3926 34.4601 31.5589C34.5412 31.7252 34.5851 31.9057 34.5892 32.0889C34.5933 32.2721 34.5574 32.4541 34.4838 32.6235C34.4102 32.7929 34.3004 32.9461 34.1615 33.0733C34.0943 33.135 34.0115 33.179 33.921 33.2011C33.8306 33.2233 33.7356 33.2228 33.6454 33.1997L28.1389 31.6549C27.8728 31.5777 27.6311 31.4388 27.4357 31.2507C27.2403 31.0627 27.0973 30.8314 27.0197 30.5778C26.942 30.3241 26.9322 30.0562 26.991 29.798C27.0498 29.5398 27.1754 29.2997 27.3565 29.0991" fill="#FBE7EE"/>
<path d="M34.8625 25.1015L35.8052 25.0035C36.1199 24.9776 36.4308 25.0973 36.6701 25.3366C36.9094 25.576 37.058 25.9156 37.0834 26.2817L37.4498 30.8964C37.4645 31.0746 37.4471 31.2544 37.3986 31.4243C37.3501 31.5942 37.2717 31.7505 37.1683 31.883C37.0649 32.0156 36.9389 32.1216 36.7983 32.1941C36.6577 32.2667 36.5056 32.3042 36.3518 32.3043C36.2793 32.303 36.2083 32.2797 36.1459 32.2366C36.0835 32.1935 36.0319 32.1321 35.9961 32.0586L33.8001 27.3791C33.6932 27.1528 33.637 26.8988 33.6367 26.6405C33.6364 26.3822 33.692 26.128 33.7983 25.9014C33.9047 25.6747 34.0583 25.4828 34.2452 25.3435C34.432 25.2042 34.6459 25.1219 34.8673 25.1042" fill="#FBE7EE"/>
<path d="M42.9552 27.1609L43.6975 27.8138C43.9476 28.0271 44.1037 28.3318 44.1315 28.661C44.1594 28.9903 44.0567 29.3172 43.846 29.5702L41.1947 32.7971C41.0923 32.9217 40.9652 33.0233 40.8216 33.0955C40.678 33.1677 40.521 33.2088 40.3607 33.2162C40.2005 33.2236 40.0404 33.1971 39.8909 33.1385C39.7413 33.0799 39.6056 32.9903 39.4923 32.8757C39.4362 32.8226 39.3961 32.7546 39.3766 32.6795C39.3571 32.6044 39.359 32.5253 39.3822 32.4513L40.7283 27.8213C40.7939 27.598 40.9141 27.3949 41.0778 27.2307C41.2414 27.0664 41.4434 26.9463 41.6651 26.8813C41.8867 26.8163 42.121 26.8086 42.3465 26.8587C42.5719 26.9089 42.7812 27.0154 42.9552 27.1684" fill="#FBE7EE"/>
<path d="M46.9304 33.7675L46.996 34.8967C47.0232 35.2686 46.9178 35.6374 46.703 35.9226C46.4881 36.2077 46.1811 36.3859 45.8492 36.4182L41.6365 36.8614C41.4711 36.882 41.3037 36.8634 41.1452 36.8069C40.9866 36.7503 40.8405 36.6571 40.7162 36.5332C40.5919 36.4092 40.4922 36.2575 40.4237 36.0876C40.3552 35.9178 40.3193 35.7337 40.3184 35.5474C40.3194 35.4601 40.3414 35.3748 40.3819 35.3003C40.4225 35.2258 40.4802 35.1649 40.549 35.1239L44.8171 32.4972C45.0243 32.3707 45.2564 32.3044 45.4923 32.3044C45.7282 32.3043 45.9604 32.3704 46.1676 32.4968C46.3748 32.6232 46.5504 32.8057 46.6784 33.0277C46.8064 33.2496 46.8826 33.504 46.9002 33.7675" fill="#FBE7EE"/>
<path d="M45.6818 41.9058L44.9007 42.7577C44.6455 43.0447 44.281 43.2238 43.8872 43.2557C43.4933 43.2877 43.1022 43.1698 42.7995 42.9281L38.9167 39.8825C38.7666 39.7656 38.6441 39.62 38.557 39.4551C38.47 39.2902 38.4205 39.1098 38.4116 38.9256C38.4027 38.7413 38.4347 38.5573 38.5055 38.3856C38.5763 38.2138 38.6844 38.0582 38.8226 37.9288C38.8871 37.8657 38.9685 37.8206 39.0579 37.7984C39.1474 37.7761 39.2416 37.7775 39.3303 37.8024L44.8559 39.3472C45.1231 39.4225 45.366 39.5604 45.5625 39.7483C45.759 39.9361 45.9027 40.1679 45.9804 40.4223C46.0582 40.6767 46.0675 40.9456 46.0075 41.2043C45.9475 41.463 45.8201 41.7032 45.637 41.9029" fill="#FBE7EE"/>
<path d="M38.1417 45.9242L37.1939 45.9961C36.8818 46.0236 36.5731 45.9058 36.3351 45.6684C36.0972 45.4311 35.9493 45.0935 35.9239 44.7293L35.5519 40.1062C35.5372 39.9277 35.5547 39.7475 35.6031 39.5773C35.6515 39.4071 35.7299 39.2505 35.8332 39.1177C35.9365 38.9849 36.0624 38.8788 36.2029 38.8061C36.3434 38.7334 36.4953 38.6958 36.649 38.6956C36.7237 38.6962 36.797 38.7199 36.8613 38.7644C36.9257 38.8088 36.9787 38.8725 37.015 38.9487L39.2032 43.6299C39.3093 43.8572 39.365 44.112 39.3651 44.3709C39.3651 44.6298 39.3096 44.8845 39.2035 45.1119C39.0975 45.3393 38.9443 45.532 38.758 45.6725C38.5716 45.8129 38.3581 45.8966 38.1369 45.9159" fill="#FBE7EE"/>
</svg>