<?xml version="1.0" encoding="UTF-8"?>
<svg id="Layer_1" data-name="Layer 1" xmlns="http://www.w3.org/2000/svg" viewBox="0 0 72 72">
  <defs>
    <style>
      .cls-1, .cls-2 {
        fill: #fae7ed;
      }

      .cls-3 {
        fill: #bb2b4c;
      }

      .cls-3, .cls-2 {
        fill-rule: evenodd;
      }
    </style>
  </defs>
  <g>
    <path class="cls-2" d="M40.24,38.24h10.32c1.65,0,2.99,1.35,2.99,3.03v5.03c0,1.67-1.34,3.03-2.99,3.03h-10.32c-1.65,0-2.99-1.35-2.99-3.03v-5.03c0-1.67,1.34-3.03,2.99-3.03Z"/>
    <path class="cls-2" d="M21.63,41.75h9.01c1.11,0,2.02,.93,2.02,2.05v18.76c0,.44-.36,.8-.8,.8h-11.41c-.44,0-.8-.36-.8-.8v-18.76c0-1.12,.92-2.05,2.02-2.05h-.05Z"/>
    <ellipse class="cls-1" cx="35.42" cy="20.62" rx="4.68" ry="4.73"/>
    <path class="cls-3" d="M57.07,29.6h1.24c.76,0,1.09-.95,.5-1.43L36.63,10.33c-1.16-1.07-2.07-.93-2.84,0L11.63,28.27c-.59,.48-.25,1.43,.51,1.43h.16c.44,0,.8,.36,.8,.8v28.76c0,2.29,1.83,4.15,4.1,4.15h1.56c.44,0,.8-.36,.8-.8v-18.76c0-1.12,.92-2.05,2.02-2.05h9.01c1.11,0,2.02,.93,2.02,2.05v18.76c0,.44,.36,.8,.8,.8h19.54c2.27,0,4.1-1.85,4.1-4.15V29.6Zm-19.81,16.64v-4.98c0-1.66,1.35-3.03,2.99-3.03h10.27c1.64,0,2.99,1.37,2.99,3.03v4.98c0,1.66-1.35,3.03-2.99,3.03h-10.27c-1.64,0-2.99-1.37-2.99-3.03Zm-6.56-25.62c0-2.59,2.07-4.73,4.68-4.73s4.68,2.1,4.68,4.73-2.07,4.73-4.68,4.73-4.68-2.1-4.68-4.73Z"/>
    <path class="cls-3" d="M45.94,10.41l.08,5.06c0,.23,.11,.45,.29,.6l4.66,3.92c.52,.44,1.32,.07,1.32-.62l-.04-8.98c0-.44-.36-.8-.8-.8h-4.7c-.45,0-.81,.37-.8,.82Z"/>
    <path d="M18.11,62.73H53.84c.96,0,1.83-.39,2.46-1.02,.63-.63,1.01-1.51,1.01-2.49V31.82c0-.44-.36-.8-.8-.8h-22.91s-.67-.05-.67-.75c0-.58,.67-.67,.67-.67h25.34c.76,0,1.09-.95,.5-1.43L37.25,10.33c-1.16-1.07-2.07-.93-2.84,0L12.26,28.27c-.59,.48-.25,1.43,.51,1.43h15.96s.58,.06,.61,.67c0,.58-.61,.69-.61,.69H15.5c-.44,0-.8,.36-.8,.8v27.4c0,.98,.39,1.85,1.01,2.49,.63,.63,1.49,1.02,2.46,1.02l-.05-.05ZM58.56,31.02v28.2c0,1.32-.53,2.54-1.4,3.37-.87,.88-2.02,1.41-3.33,1.41H18.11c-1.3,0-2.51-.54-3.33-1.41-.87-.88-1.4-2.05-1.4-3.37V31.79c0-.43-.34-.79-.78-.8l-3.61-.12c-.92,0-1.35-.59-.67-1.22L33.69,8.91c1.45-1.22,2.89-1.22,4.29,0l5.8,4.8c.53,.44,1.32,.06,1.32-.63l-.02-2.59c0-.26-.17-.5-.42-.58l-.79-.27v-.81c0-.44,.36-.8,.8-.8h10.06c.44,0,.8,.36,.8,.8v.81l-.77,.22c-.29,.08-.49,.34-.49,.64l.04,11.52c0,.25,.12,.49,.32,.64l8.94,6.69c.82,.83,.39,1.71-.67,1.71h-4.39l.05-.05Zm-5.7-11.65l-.04-8.97c0-.44-.36-.8-.8-.8h-4.7c-.45,0-.81,.37-.8,.82l.08,5.02c0,.23,.11,.45,.28,.6l4.66,3.95c.52,.44,1.33,.07,1.32-.62Z"/>
  </g>
  <rect x="13.9" y="38.57" width="9.25" height="1.47" rx=".73" ry=".73"/>
  <rect x="13.9" y="56.48" width="4.78" height="1.47" rx=".73" ry=".73"/>
  <rect x="40.43" y="53.97" width="12.53" height="1.47" rx=".73" ry=".73"/>
</svg>