<svg width="72" height="72" viewBox="0 0 72 72" fill="none" xmlns="http://www.w3.org/2000/svg">
<path d="M33.1029 9C21.9604 9 12.8965 18.065 12.8965 29.2065C12.8965 44.1136 31.5396 61.8314 32.3334 62.5791C32.5504 62.7818 32.8267 62.8838 33.1029 62.8838C33.3792 62.8838 33.6554 62.7818 33.8726 62.5791C34.6662 61.8314 53.3094 44.1136 53.3094 29.2065C53.3094 18.065 44.2454 9 33.1029 9ZM33.1029 43.2046C25.3848 43.2046 19.1047 36.9246 19.1047 29.2063C19.1047 21.4881 25.3849 15.2082 33.1029 15.2082C40.821 15.2082 47.1012 21.4883 47.1012 29.2065C47.1012 36.9246 40.8211 43.2046 33.1029 43.2046Z" fill="#BB2C4E"/>
<path d="M48.7058 25.2447C47.8039 21.6981 45.7246 18.6221 42.9086 16.456C40.1929 14.3669 36.7923 13.1239 33.101 13.1239H32.2065L32.1897 13.1501C23.7215 13.6227 17 20.6385 17 29.2249C17 31.3203 17.4006 33.3222 18.1289 35.1584C18.5208 36.1456 19.0098 37.0916 19.5886 37.9823C20.0804 38.7395 20.6348 39.4542 21.246 40.1189C21.9211 40.8535 22.6627 41.5242 23.4612 42.1224C26.1486 44.1342 29.4857 45.3259 33.101 45.3259C39.7696 45.3259 45.4914 41.2718 47.9361 35.4938C48.7512 33.5671 49.2021 31.4487 49.2021 29.2249C49.2021 27.8511 49.0296 26.5177 48.7058 25.2447Z" fill="black"/>
<path d="M33.302 43.8457C41.3399 43.8457 47.854 37.2987 47.854 29.2252C47.854 21.1516 41.3399 14.6046 33.302 14.6046C25.264 14.6046 18.75 21.1516 18.75 29.2252C18.75 37.2987 25.264 43.8457 33.302 43.8457Z" fill="#FBE7EE" stroke="#FBE7EE" stroke-width="0.5"/>
<path d="M34.4377 34.3672C31.8047 34.3672 29.6704 32.2225 29.6704 29.577C29.6704 26.9315 31.8048 24.7869 34.4377 24.7869C34.6172 24.7869 34.7941 24.7977 34.9685 24.8171C34.0934 24.2742 33.0838 23.9872 32.0541 23.9885C28.9823 23.9885 26.4922 26.4906 26.4922 29.577C26.4922 32.6635 28.9823 35.1656 32.0541 35.1656C33.0838 35.1669 34.0934 34.8798 34.9685 34.3369C34.7922 34.3569 34.615 34.367 34.4377 34.3672Z" fill="#BB2C4E"/>
<path d="M36.3672 26.9736L37.0103 28.9627H39.0917L37.4079 30.1919L38.051 32.1809L36.3672 30.9516L34.6833 32.1809L35.3265 30.1919L33.6426 28.9627H35.724L36.3672 26.9736Z" fill="#BB2C4E"/>
<path d="M14.8984 29.2064C14.8984 18.3411 23.7386 9.49997 34.6049 9.49997C45.4712 9.49997 54.3113 18.3411 54.3113 29.2064C54.3113 36.485 49.7428 44.5267 44.9897 50.9037C40.2582 57.2517 35.4264 61.8431 35.0326 62.2142C34.9106 62.3278 34.7575 62.3838 34.6049 62.3838C34.4522 62.3838 34.2991 62.3278 34.1772 62.2141C33.7827 61.8425 28.9512 57.2512 24.2201 50.9037C19.467 44.5267 14.8984 36.485 14.8984 29.2064Z" stroke="black"/>
<rect x="37.8906" y="9.5976" width="21.5332" height="9.77677" rx="3.5" fill="white"/>
<rect x="37.8906" y="9.5976" width="21.5332" height="9.77677" rx="3.5" stroke="black"/>
<path d="M45.3463 14.677V15.1883H45.2941C45.1811 15.1883 45.0802 15.1796 44.9915 15.1622C44.9046 15.1431 44.8272 15.1179 44.7593 15.0866C44.6933 15.0553 44.635 15.0188 44.5846 14.977C44.5341 14.9335 44.4906 14.8883 44.4541 14.8414C44.3811 14.8988 44.3072 14.9492 44.2324 14.9927C44.1593 15.0362 44.0802 15.0727 43.995 15.1022C43.9115 15.1301 43.8202 15.1518 43.7211 15.1675C43.622 15.1814 43.5106 15.1883 43.3872 15.1883C43.182 15.1883 42.9915 15.1466 42.8159 15.0631C42.642 14.9779 42.4811 14.8588 42.3333 14.7057L42.628 14.2909C42.7324 14.3883 42.8376 14.4657 42.9437 14.5231C43.0498 14.5805 43.155 14.6205 43.2593 14.6431C43.3289 14.6588 43.3985 14.6666 43.468 14.6666C43.5011 14.6666 43.5498 14.664 43.6141 14.6588C43.6802 14.6518 43.7602 14.6301 43.8541 14.5935C43.9428 14.5588 44.015 14.5214 44.0706 14.4814C44.128 14.4396 44.1715 14.404 44.2011 14.3744L43.3767 12.3918L43.8515 12.1935C43.935 12.397 44.0106 12.5822 44.0785 12.7492C44.148 12.9162 44.2133 13.0744 44.2741 13.224C44.3367 13.3735 44.3976 13.5214 44.4567 13.6675C44.5176 13.8118 44.582 13.9631 44.6498 14.1214C44.6846 14.2048 44.7176 14.2814 44.7489 14.3509C44.782 14.4188 44.8211 14.477 44.8663 14.5257C44.9115 14.5727 44.968 14.6101 45.0359 14.6379C45.1037 14.664 45.1898 14.677 45.2941 14.677H45.3463ZM45.2427 14.677H45.7462C45.8471 14.677 45.9454 14.6753 46.041 14.6718C46.1367 14.6666 46.2254 14.6535 46.3071 14.6327C46.3888 14.6118 46.461 14.5814 46.5236 14.5414C46.5862 14.4996 46.6349 14.4422 46.6697 14.3692C46.6871 14.3327 46.7001 14.2866 46.7088 14.2309C46.7141 14.1944 46.7167 14.1553 46.7167 14.1135C46.7167 14.0909 46.7149 14.057 46.7114 14.0118C46.708 13.9648 46.6967 13.9014 46.6775 13.8214C46.6584 13.7396 46.6306 13.6544 46.5941 13.5657L46.3671 13.0075L46.8314 12.7779C46.8314 12.7796 46.8393 12.7979 46.8549 12.8327C46.8706 12.8657 46.8906 12.9109 46.9149 12.9683C46.941 13.0257 46.9688 13.0927 46.9984 13.1692C47.028 13.244 47.0558 13.324 47.0819 13.4092C47.1601 13.6614 47.2054 13.884 47.2175 14.077C47.2193 14.1048 47.2201 14.1327 47.2201 14.1605C47.2201 14.3188 47.1941 14.4579 47.1419 14.5779C47.0897 14.6962 47.0201 14.7944 46.9332 14.8727C46.848 14.9509 46.7497 15.0135 46.6384 15.0605C46.5271 15.1075 46.4045 15.1405 46.2706 15.1596C46.1384 15.1788 46.001 15.1883 45.8584 15.1883H45.2427V14.677ZM46.1506 16.0414L45.728 16.464L45.3001 16.0388L45.7227 15.6135L46.1506 16.0414ZM47.2201 16.044L46.7975 16.4692L46.3697 16.0414L46.7923 15.6188L47.2201 16.044ZM50.8365 14.677V15.1883H50.7844C50.6713 15.1883 50.5704 15.1796 50.4818 15.1622C50.3948 15.1431 50.3174 15.1179 50.2496 15.0866C50.1835 15.0553 50.1252 15.0188 50.0748 14.977C50.0244 14.9335 49.9809 14.8883 49.9444 14.8414C49.8713 14.8988 49.7974 14.9492 49.7226 14.9927C49.6496 15.0362 49.5704 15.0727 49.4852 15.1022C49.4018 15.1301 49.3104 15.1518 49.2113 15.1675C49.1122 15.1814 49.0009 15.1883 48.8774 15.1883C48.6722 15.1883 48.4818 15.1466 48.3061 15.0631C48.1322 14.9779 47.9713 14.8588 47.8235 14.7057L48.1183 14.2909C48.2226 14.3883 48.3278 14.4657 48.4339 14.5231C48.54 14.5805 48.6452 14.6205 48.7496 14.6431C48.8191 14.6588 48.8887 14.6666 48.9583 14.6666C48.9913 14.6666 49.04 14.664 49.1044 14.6588C49.1704 14.6518 49.2504 14.6301 49.3444 14.5935C49.4331 14.5588 49.5052 14.5214 49.5609 14.4814C49.6183 14.4396 49.6618 14.404 49.6913 14.3744L48.867 12.3918L49.3418 12.1935C49.4252 12.397 49.5009 12.5822 49.5687 12.7492C49.6383 12.9162 49.7035 13.0744 49.7644 13.224C49.827 13.3735 49.8878 13.5214 49.947 13.6675C50.0078 13.8118 50.0722 13.9631 50.14 14.1214C50.1748 14.2048 50.2078 14.2814 50.2391 14.3509C50.2722 14.4188 50.3113 14.477 50.3565 14.5257C50.4018 14.5727 50.4583 14.6101 50.5261 14.6379C50.5939 14.664 50.68 14.677 50.7844 14.677H50.8365ZM50.733 14.677H51.2991C51.5304 14.677 51.7617 14.6553 51.993 14.6118C52.2243 14.5666 52.4521 14.5075 52.6765 14.4344C52.9008 14.3614 53.1199 14.2779 53.3339 14.184C53.5478 14.0901 53.7539 13.9935 53.9521 13.8944C53.8321 13.8527 53.7173 13.8075 53.6078 13.7588C53.4982 13.7101 53.3904 13.6605 53.2843 13.6101C53.2025 13.5718 53.1225 13.5353 53.0443 13.5005C52.9678 13.464 52.893 13.4318 52.8199 13.404C52.7486 13.3761 52.6808 13.3544 52.6165 13.3388C52.5521 13.3214 52.493 13.3127 52.4391 13.3127C52.3678 13.3127 52.2999 13.3283 52.2356 13.3596C52.1712 13.3909 52.1112 13.4309 52.0556 13.4796C52.0017 13.5266 51.953 13.5779 51.9095 13.6335C51.866 13.6875 51.8286 13.7388 51.7973 13.7875C51.766 13.8344 51.7417 13.8744 51.7243 13.9075C51.7086 13.9388 51.7008 13.9553 51.7008 13.957L51.2312 13.7457C51.233 13.7422 51.2399 13.7275 51.2521 13.7014C51.266 13.6735 51.2852 13.6388 51.3095 13.597C51.3356 13.5553 51.366 13.5075 51.4008 13.4535C51.4373 13.3996 51.4791 13.3448 51.526 13.2892C51.6617 13.1257 51.8052 13.0031 51.9565 12.9214C52.1095 12.8396 52.2704 12.7988 52.4391 12.7988C52.5225 12.7988 52.6069 12.8083 52.6921 12.8275C52.7791 12.8466 52.8669 12.8727 52.9556 12.9057C53.0443 12.937 53.1347 12.9735 53.2269 13.0153C53.3191 13.057 53.4121 13.0996 53.506 13.1431C53.6086 13.1918 53.7121 13.2396 53.8165 13.2866C53.9225 13.3335 54.0286 13.3762 54.1347 13.4144C54.2408 13.4509 54.3469 13.4805 54.453 13.5031C54.5591 13.5257 54.666 13.537 54.7739 13.537L54.873 14.0327C54.7512 14.0831 54.6304 14.1379 54.5104 14.197C54.3904 14.2544 54.2652 14.3153 54.1347 14.3796C53.9434 14.4753 53.7373 14.5709 53.5165 14.6666C53.2973 14.7622 53.0669 14.8492 52.8252 14.9275C52.5852 15.004 52.3365 15.0666 52.0791 15.1153C51.8217 15.164 51.5617 15.1883 51.2991 15.1883H50.733V14.677ZM53.3104 16.117L52.8852 16.5422L52.4573 16.1144L52.8825 15.6892L53.3104 16.117Z" fill="black"/>
</svg>
