<svg width="72" height="72" viewBox="0 0 72 72" fill="none" xmlns="http://www.w3.org/2000/svg">
<path d="M51.7624 19.6336H20.3407C19.4798 19.6336 18.7155 20.1844 18.4433 21.0011L7.70322 53.2214C7.63524 53.4253 7.60059 53.6389 7.60059 53.8538V61.3541C7.60059 62.4587 8.49601 63.3541 9.60058 63.3541H60.6197C61.7243 63.3541 62.6197 62.4587 62.6197 61.3541V53.7996C62.6197 53.6202 62.5956 53.4416 62.5479 53.2687L53.6906 21.1026C53.4517 20.2348 52.6625 19.6336 51.7624 19.6336Z" fill="#BB2C4E"/>
<path d="M51.4645 23.0723H23.1667C22.6866 23.0723 22.2742 23.4135 22.1844 23.8852L16.6705 52.8334C16.5531 53.4496 17.0255 54.0205 17.6528 54.0205H56.5189C57.14 54.0205 57.6109 53.4603 57.504 52.8485L52.4496 23.9003C52.366 23.4216 51.9504 23.0723 51.4645 23.0723Z" fill="#FBE7EE"/>
<path d="M23.8125 43.6991C25.3225 43.7846 25.8395 41.6567 27.3494 41.7421C28.7207 41.8197 29.1221 43.6215 30.4934 43.6991C32.0034 43.7846 32.5204 41.6567 34.0303 41.7421C35.4016 41.8197 35.8051 43.8209 37.1743 43.6991C38.2012 43.6078 38.5179 42.451 39.5322 42.2314C40.1371 42.1004 40.4994 42.1004 41.1042 42.2314" stroke="#BB2C4E" stroke-linecap="round"/>
<path d="M32.6533 38.7866C34.1633 38.872 34.6803 36.7441 36.1903 36.8296C37.5616 36.9072 37.9629 38.709 39.3342 38.7866C40.8442 38.872 41.3612 36.7441 42.8712 36.8296C44.2425 36.9072 44.6459 38.9083 46.0151 38.7866C47.042 38.6953 47.3588 37.5384 48.3731 37.3188C48.9779 37.1879 49.3402 37.1879 49.945 37.3188" stroke="#BB2C4E" stroke-linecap="round"/>
<path d="M23.8125 11.7328C23.8125 11.7328 25.3807 11.0735 27.2512 11.3503C27.895 11.4456 28.4483 11.6382 28.9113 11.8659C30.2406 12.5197 30.6899 14.061 30.6899 15.5423V27.0022" stroke="black" stroke-linecap="round"/>
<path d="M35.6025 10.8274C35.6025 10.8274 37.1707 10.0553 39.0412 10.3795C39.8664 10.5224 40.543 10.8526 41.0711 11.2168C42.1471 11.9587 42.4799 13.3119 42.4799 14.6189V27.0022" stroke="black" stroke-linecap="round"/>
<path d="M30.6854 25.7819L41.9946 25.7662" stroke="black" stroke-linecap="round"/>
<path d="M30.6849 22.8287L41.9941 22.8246" stroke="black" stroke-linecap="round"/>
<path d="M52.7429 19.6336H21.3211C20.4603 19.6336 19.696 20.1844 19.4238 21.0011L8.99159 52.2977C8.71968 53.1134 8.58105 53.9677 8.58105 54.8275V61.3541C8.58105 62.4587 9.47648 63.3541 10.5811 63.3541H61.6002C62.7047 63.3541 63.6002 62.4587 63.6002 61.3541V54.6106C63.6002 53.893 63.5036 53.1786 63.3131 52.4868L54.6711 21.1026C54.4321 20.2348 53.6429 19.6336 52.7429 19.6336Z" stroke="black"/>
<path d="M51.4645 23.0723H23.1667C22.6866 23.0723 22.2742 23.4135 22.1844 23.8852L16.6705 52.8334C16.5531 53.4496 17.0255 54.0205 17.6528 54.0205H56.5189C57.14 54.0205 57.6109 53.4603 57.504 52.8485L52.4496 23.9003C52.366 23.4216 51.9504 23.0723 51.4645 23.0723Z" stroke="black"/>
</svg>