<svg width="32" height="32" viewBox="0 0 32 32" fill="none" xmlns="http://www.w3.org/2000/svg">
<path fill-rule="evenodd" clip-rule="evenodd" d="M16.3335 5.26479C16.1011 5.19173 15.8589 5.19173 15.6264 5.26479L15.6231 5.26584L15.6231 5.26584L8.65973 7.43192C7.65118 7.79141 7.39893 7.90029 7.23853 8.02587C7.06165 8.18347 6.9401 8.35787 6.87688 8.51878L6.86662 8.54407C6.80937 8.68059 6.78665 8.87651 6.78665 9.97333V15.8533C6.78665 18.4019 8.2624 20.7209 10.2263 22.6593C12.1702 24.578 14.4347 25.9655 15.6577 26.6415C15.7316 26.6818 15.7867 26.7119 15.835 26.7373C15.8831 26.7627 15.9135 26.7776 15.9343 26.7872C15.9385 26.7891 15.9421 26.7907 15.9451 26.792C15.9592 26.7928 15.9756 26.7933 15.9933 26.7933C16.0137 26.7933 16.0323 26.7926 16.0477 26.7916C16.0485 26.7912 16.0493 26.7908 16.0502 26.7904C16.0684 26.782 16.0963 26.768 16.1456 26.7415C16.1793 26.7235 16.2128 26.7051 16.2541 26.6825C16.2764 26.6703 16.301 26.6568 16.329 26.6415C17.552 25.9654 19.8164 24.578 21.7603 22.6593C23.6616 20.7827 25.1053 18.5495 25.1955 16.0965C25.1809 16.0215 25.1733 15.9446 25.1733 15.8667V9.97333C25.1733 8.89851 25.1523 8.6894 25.0882 8.53165L25.083 8.51881L25.0831 8.51878C25.012 8.33788 24.8949 8.17149 24.7304 8.03297C24.5703 7.9043 24.3278 7.79817 23.3002 7.43192L16.3369 5.26584L16.3335 5.26479ZM27.5733 15.6017C27.5909 15.6835 27.6 15.7678 27.6 15.8533C27.6 19.3447 25.5957 22.2458 23.4463 24.3674C21.2783 26.5072 18.7981 28.0191 17.4871 28.7436L17.4813 28.7468C17.4569 28.7601 17.4315 28.7742 17.4051 28.7889C17.1805 28.9135 16.883 29.0787 16.4878 29.1528L16.4639 29.157C16.1733 29.2054 15.8133 29.2054 15.5227 29.157C15.51 29.1549 15.4973 29.1526 15.4846 29.15C15.1004 29.0732 14.8034 28.9102 14.5589 28.7761C14.5408 28.7662 14.5229 28.7564 14.5054 28.7468L14.4996 28.7436C13.1886 28.0191 10.7083 26.5072 8.54034 24.3674C6.3909 22.2458 4.38665 19.3447 4.38665 15.8533V9.97333C4.38665 9.91346 4.38654 9.854 4.38644 9.79493C4.38501 8.99477 4.38372 8.2689 4.64787 7.62909C4.87666 7.05335 5.25419 6.57074 5.67923 6.20114C5.6889 6.19273 5.69871 6.18448 5.70864 6.17638C6.23745 5.7455 6.91156 5.50603 7.73617 5.21309C7.78275 5.19654 7.82982 5.17982 7.87736 5.16289C7.89265 5.15744 7.90805 5.15231 7.92355 5.14749L14.9069 2.97521C14.9075 2.97501 14.9081 2.97482 14.9087 2.97463C15.6085 2.75511 16.3516 2.75512 17.0513 2.97465C17.0519 2.97483 17.0525 2.97502 17.0531 2.97521L24.0364 5.14749C24.0519 5.15231 24.0673 5.15744 24.0826 5.16289C24.1301 5.17982 24.1772 5.19654 24.2238 5.21309C25.0484 5.50603 25.7225 5.7455 26.2513 6.17638L26.2616 6.18474L26.2615 6.1848C26.7325 6.57731 27.0928 7.07376 27.3145 7.63508C27.5759 8.28358 27.5748 9.00326 27.5735 9.80407C27.5734 9.86009 27.5733 9.91651 27.5733 9.97333V15.6017Z" fill="#48484E"/>
<path fill-rule="evenodd" clip-rule="evenodd" d="M21.6403 11.1435C22.1134 11.6077 22.1206 12.3674 21.6564 12.8405L15.3764 19.2405C15.1507 19.4704 14.8421 19.6 14.5199 19.6C14.1977 19.6 13.889 19.4704 13.6633 19.2405L10.8767 16.4005C10.4125 15.9274 10.4197 15.1676 10.8928 14.7035C11.3658 14.2393 12.1256 14.2465 12.5897 14.7196L14.5199 16.6866L19.9434 11.1595C20.4075 10.6865 21.1673 10.6793 21.6403 11.1435Z" fill="#F03E58"/>
</svg>
